<?xml version="1.0" encoding="UTF-8"?>
<svg width="19px" height="15px" viewBox="0 0 19 15" version="1.1" xmlns="http://www.w3.org/2000/svg" xmlns:xlink="http://www.w3.org/1999/xlink">
    <!-- Generator: Sketch 51 (57462) - http://www.bohemiancoding.com/sketch -->
    <title>back</title>
    <desc>Created with Sketch.</desc>
    <defs></defs>
    <g id="Page-1" stroke="none" stroke-width="1" fill="none" fill-rule="evenodd">
        <g id="Desktop-Article" transform="translate(-150.000000, -524.000000)" fill="#FF8790" fill-rule="nonzero">
            <g id="menuSelect" transform="translate(150.000000, 520.000000)">
                <g id="Group-2">
                    <g id="back" transform="translate(0.000000, 4.000000)">
                        <path d="M17.8527778,7.67611111 L0.277777778,7.67611111 C0.124444444,7.67611111 0,7.55166667 0,7.39833333 C0,7.245 0.124444444,7.12055556 0.277777778,7.12055556 L17.8527778,7.12055556 C18.0061111,7.12055556 18.1305556,7.245 18.1305556,7.39833333 C18.1305556,7.55166667 18.0061111,7.67611111 17.8527778,7.67611111 Z" id="Shape"></path>
                        <path d="M7.24277778,14.6405556 C7.17166667,14.6405556 7.10055556,14.6133333 7.04611111,14.5594444 L0.0811111111,7.59388889 C0.0294444444,7.54166667 0,7.47111111 0,7.39722222 C0,7.32333333 0.0294444444,7.25277778 0.0811111111,7.20055556 L7.04666667,0.238333333 C7.155,0.13 7.33111111,0.13 7.43944444,0.238333333 C7.54777778,0.346666667 7.54777778,0.522777778 7.43944444,0.631111111 L0.670555556,7.39722222 L7.43944444,14.1661111 C7.54777778,14.2744444 7.54777778,14.4505556 7.43944444,14.5588889 C7.385,14.6133333 7.31388889,14.6405556 7.24277778,14.6405556 Z" id="Shape"></path>
                    </g>
                </g>
            </g>
        </g>
    </g>
</svg>