<?xml version="1.0" encoding="UTF-8"?>
<svg width="64px" height="60px" viewBox="0 0 64 60" version="1.1" xmlns="http://www.w3.org/2000/svg" xmlns:xlink="http://www.w3.org/1999/xlink">
    <!-- Generator: Sketch 51 (57462) - http://www.bohemiancoding.com/sketch -->
    <title>003-like</title>
    <desc>Created with Sketch.</desc>
    <defs>
        <filter x="-60.0%" y="-60.0%" width="220.0%" height="220.0%" filterUnits="objectBoundingBox" id="filter-1">
            <feOffset dx="0" dy="0" in="SourceAlpha" result="shadowOffsetOuter1"></feOffset>
            <feGaussianBlur stdDeviation="10" in="shadowOffsetOuter1" result="shadowBlurOuter1"></feGaussianBlur>
            <feColorMatrix values="0 0 0 0 0.176470588   0 0 0 0 0.17254902   0 0 0 0 0.176470588  0 0 0 0.2 0" type="matrix" in="shadowBlurOuter1" result="shadowMatrixOuter1"></feColorMatrix>
            <feMerge>
                <feMergeNode in="shadowMatrixOuter1"></feMergeNode>
                <feMergeNode in="SourceGraphic"></feMergeNode>
            </feMerge>
        </filter>
    </defs>
    <g id="Page-1" stroke="none" stroke-width="1" fill="none" fill-rule="evenodd">
        <g id="Desktop-Article" transform="translate(-384.000000, -399.000000)" fill="#FF8790" fill-rule="nonzero">
            <g id="like" filter="url(#filter-1)" transform="translate(391.000000, 405.000000)">
                <g id="003-like" transform="translate(12.000000, 13.000000)">
                    <path d="M25.9570243,7.15656221 C25.5775002,3.00937015 22.6208131,0.000496431896 18.920579,0.000496431896 C16.455423,0.000496431896 14.1982801,1.31753025 12.9281998,3.42835867 C11.6696201,1.2902265 9.50498314,0 7.07932964,0 C3.37959551,0 0.422408377,3.00887372 0.0433843915,7.15606578 C0.013382493,7.33924915 -0.109625291,8.30331989 0.264398378,9.8755197 C0.803432489,12.1432206 2.04851128,14.2058951 3.86412617,15.8391561 L12.9221994,24 L22.1357824,15.8396525 C23.9513973,14.2058951 25.1964761,12.143717 25.7355102,9.8755197 C26.1095339,8.30381632 25.9865261,7.33974558 25.9570243,7.15656221 Z M24.7619486,9.64815389 C24.2699175,11.7192678 23.1293453,13.6062054 21.4667401,15.1014583 L12.9281998,22.6645982 L4.5361687,15.103444 C2.8705633,13.6052125 1.73049115,11.7187713 1.23795999,9.64765746 C0.883937583,8.15985107 1.02944679,7.31939187 1.02994682,7.31393112 L1.0374473,7.2637915 C1.36246787,3.63040645 3.90312864,0.992863791 7.07932964,0.992863791 C9.42297795,0.992863791 11.4861085,2.42258765 12.4651705,4.72354949 L12.9256996,5.80726032 L13.3862288,4.72354949 C14.3497897,2.45783432 16.5219272,0.993360223 18.921079,0.993360223 C22.09678,0.993360223 24.6379408,3.63090289 24.9694618,7.31144896 C24.9704618,7.31939187 25.115971,8.1603475 24.7619486,9.64815389 Z" id="Shape"></path>
                    <path d="M7.54545455,3 C5.03909091,3 3,5.03909091 3,7.54545455 C3,7.79681818 3.20318182,8 3.45454545,8 C3.70590909,8 3.90909091,7.79681818 3.90909091,7.54545455 C3.90909091,5.54045455 5.54045455,3.90909091 7.54545455,3.90909091 C7.79681818,3.90909091 8,3.70590909 8,3.45454545 C8,3.20318182 7.79636364,3 7.54545455,3 Z" id="Shape"></path>
                </g>
            </g>
        </g>
    </g>
</svg>