<?xml version="1.0" encoding="UTF-8"?>
<svg width="106px" height="63px" viewBox="0 0 106 63" version="1.1" xmlns="http://www.w3.org/2000/svg" xmlns:xlink="http://www.w3.org/1999/xlink">
    <!-- Generator: Sketch 51 (57462) - http://www.bohemiancoding.com/sketch -->
    <title>logoTroc</title>
    <desc>Created with Sketch.</desc>
    <defs>
        <linearGradient x1="-3.65324066%" y1="50.0002771%" x2="103.652875%" y2="50.0002771%" id="linearGradient-1">
            <stop stop-color="#FF8790" offset="0%"></stop>
            <stop stop-color="#FF5C68" offset="100%"></stop>
        </linearGradient>
    </defs>
    <g id="Symbols" stroke="none" stroke-width="1" fill="none" fill-rule="evenodd" stroke-linecap="round">
        <g id="logoTrocSmallPink" transform="translate(3.000000, 3.000000)" stroke="url(#linearGradient-1)" stroke-width="5">
            <g id="logoTroc">
                <path d="M66.0234321,52.2632667 C66.1729841,54.0199862 61.7505169,57.4507236 56.8573398,52.7456926 C51.9641626,48.0406616 56.7760165,36.7208822 57.758787,33.3480358 C57.7833144,33.2651988 57.8674617,33.2151909 57.9519465,33.2332432 C58.0364313,33.2512955 58.0927925,33.3313266 58.0813232,33.4169538 C57.7263956,36.0358374 56.3211578,41.2474156 50.7580979,41.4011027 C43.3149552,41.6078567 42.4879394,37.7160579 43.1771192,33.1750517 C43.3838732,31.8215024 43.6953825,30.884907 44.0441075,30.2377671 C44.3659786,29.6440308 44.9516483,29.2393364 45.6208469,29.1482492 C46.2900456,29.0571619 46.9625737,29.290598 47.4314266,29.7767057 C48.7484493,31.1550655 49.758787,33.911785 48.3804273,39.7215713 C47.0213646,45.452102 44.9496899,49.2060648 43.2804962,51.5816678 C40.2481048,55.8924879 32.6671261,56.1681599 29.7725706,53.8938663 C25.4114404,50.467264 24.0062026,37.1695382 25.1550655,28.6698828 C26.2577533,20.5120606 32.9427981,-2.85320469 32.9427981,0.368711234 C32.9427981,0.368711234 14.7484493,52.6774638 0,56.7195038" id="Shape"></path>
                <circle id="Oval" cx="72.329428" cy="47.5189524" r="7.82219159"></circle>
                <path d="M4.70985527,25.5713301 L53.0902826,9.78911096" id="Shape"></path>
                <path d="M89.1798759,45.7615438 C92.2122674,43.4183322 92.5658167,36.3059959 84.4245348,42.7980703 C82.3115093,44.4831151 77.601654,49.758787 82.2880772,53.4114404 C86.9745003,57.0640937 100,54.1695382 100,54.1695382" id="Shape"></path>
            </g>
        </g>
    </g>
</svg>