<?xml version="1.0" encoding="UTF-8"?>
<svg width="32px" height="32px" viewBox="0 0 32 32" version="1.1" xmlns="http://www.w3.org/2000/svg" xmlns:xlink="http://www.w3.org/1999/xlink">
    <!-- Generator: Sketch 51 (57462) - http://www.bohemiancoding.com/sketch -->
    <title>002-phone-call</title>
    <desc>Created with Sketch.</desc>
    <defs></defs>
    <g id="Page-1" stroke="none" stroke-width="1" fill="none" fill-rule="evenodd">
        <g id="Desktop-Article" transform="translate(-991.000000, -1061.000000)" fill="#B5B5B5" fill-rule="nonzero">
            <g id="articl" transform="translate(150.000000, 585.000000)">
                <g id="articleDetail">
                    <g id="profile" transform="translate(841.000000, 313.000000)">
                        <g id="tel" transform="translate(0.000000, 163.000000)">
                            <g id="002-phone-call">
                                <path d="M31.9097931,26.2817241 C31.8082759,25.5144138 31.3653103,24.8528276 30.6946207,24.4666897 L22.8169655,19.9310345 C21.8521379,19.3755172 20.6281379,19.5372414 19.8406207,20.3246897 L18.2889655,21.8763448 C17.876069,22.2893103 17.2228276,22.3258621 16.7697931,21.9612414 C15.5465517,20.9769655 14.3421379,19.8937241 13.190069,18.7415862 C12.038,17.5895172 10.9547586,16.3851724 9.97041379,15.1618621 C9.6057931,14.7087586 9.64227586,14.0555862 10.0553103,13.6426207 L11.6068966,12.0909655 C12.3943448,11.3035862 12.5562759,10.0797241 12.0006207,9.11468966 L7.46496552,1.23703448 C7.07875862,0.566275862 6.41724138,0.12337931 5.64993103,0.021862069 C4.88255172,-0.079862069 4.12855172,0.176068966 3.58124138,0.72337931 L1.24324138,3.06144828 C-0.388551724,4.69331034 -0.414758621,7.67827586 1.16944828,11.4666207 C2.69275862,15.1092414 5.53551724,19.1191724 9.17393103,22.7577241 C12.8124828,26.3962069 16.8224138,29.2389655 20.4651034,30.7622759 C22.3298621,31.542069 23.9997931,31.9317241 25.4097241,31.9316552 C26.864069,31.9316552 28.0416552,31.5169655 28.8702759,30.6884138 L31.2082759,28.3503448 C31.7555172,27.8030345 32.0112414,27.0490345 31.9097931,26.2817241 Z M22.3008276,20.8275172 L30.1784828,25.3631724 C30.568069,25.5874483 30.8253103,25.9717241 30.8842069,26.4173793 C30.9337241,26.7913793 30.8365517,27.1596552 30.6162759,27.4564138 L20.1469655,21.4813793 L20.5721379,21.0562069 C21.0294483,20.5988966 21.7404828,20.5048966 22.3008276,20.8275172 Z M5.5142069,1.04744828 C5.95993103,1.10641379 6.34413793,1.36365517 6.56841379,1.75324138 L11.104069,9.63089655 C11.4268276,10.1913793 11.3327586,10.9022759 10.8754483,11.3595172 L10.4848966,11.750069 L4.47703448,1.31537931 C4.72262069,1.13351724 5.01634483,1.03475862 5.32255172,1.03475862 C5.38606897,1.03475862 5.45013793,1.03896552 5.5142069,1.04744828 Z M28.1386897,29.9568966 C26.8422759,31.2533103 24.1908276,31.1989655 20.8642069,29.8077931 C17.3428276,28.3352414 13.4510345,25.5716552 9.90551724,22.0262069 C6.36,18.4806897 3.59641379,14.5888276 2.12386207,11.0675172 C0.73262069,7.74082759 0.678344828,5.08937931 1.97475862,3.79289655 L3.71041379,2.05717241 L9.72731034,12.5076552 L9.3237931,12.9111724 C8.53655172,13.6984828 8.468,14.9448276 9.16441379,15.8104828 C10.171931,17.0626207 11.2802759,18.2948966 12.4584828,19.4731034 C13.6368276,20.6513793 14.8691034,21.7597241 16.1211724,22.7672414 C16.9866897,23.4636552 18.2330345,23.3951724 19.0204828,22.6077931 L19.3886207,22.2396552 L29.8724828,28.2230345 L28.1386897,29.9568966 Z" id="Shape"></path>
                            </g>
                        </g>
                    </g>
                </g>
            </g>
        </g>
    </g>
</svg>