<?xml version="1.0" encoding="UTF-8"?>
<svg width="21px" height="30px" viewBox="0 0 21 30" version="1.1" xmlns="http://www.w3.org/2000/svg" xmlns:xlink="http://www.w3.org/1999/xlink">
    <!-- Generator: Sketch 51 (57462) - http://www.bohemiancoding.com/sketch -->
    <title>001-placeholder</title>
    <desc>Created with Sketch.</desc>
    <defs></defs>
    <g id="Page-1" stroke="none" stroke-width="1" fill="none" fill-rule="evenodd">
        <g id="Desktop-Home-Filtered" transform="translate(-479.000000, -854.000000)" fill="#B5B5B5" fill-rule="nonzero">
            <g id="shop/item" transform="translate(452.000000, 507.000000)">
                <g id="place" transform="translate(27.000000, 347.000000)">
                    <g id="001-placeholder">
                        <path d="M11,7 C8.79485714,7 7,8.79485714 7,11 C7,13.2051429 8.79485714,15 11,15 C13.2051429,15 15,13.2051429 15,11 C15,8.79485714 13.2051429,7 11,7 Z M11,13.8571429 C9.42457143,13.8571429 8.14285714,12.5754286 8.14285714,11 C8.14285714,9.42457143 9.42457143,8.14285714 11,8.14285714 C12.5754286,8.14285714 13.8571429,9.42457143 13.8571429,11 C13.8571429,12.5754286 12.5754286,13.8571429 11,13.8571429 Z" id="Shape"></path>
                        <path d="M17.9261593,3.07741476 C15.9428481,1.09301094 13.305734,0 10.5010625,0 C7.69584337,0 5.0592769,1.09301094 3.07596562,3.07741476 C-0.594419646,6.74927407 -1.05054838,13.6579798 2.088143,17.843746 L10.5010625,30 L18.9013878,17.8607301 C22.0526734,13.6579798 21.5965446,6.74927407 17.9261593,3.07741476 Z M18.0132235,17.2202641 L10.5010625,28.0747667 L2.97685482,17.2032799 C0.130020115,13.4054094 0.537962383,7.16620706 3.85078215,3.85211023 C5.62711063,2.07480322 7.9887952,1.09575032 10.5010625,1.09575032 C13.0133298,1.09575032 15.3750143,2.07480322 17.1518904,3.85211023 C20.4647102,7.16620706 20.8726524,13.4054094 18.0132235,17.2202641 Z" id="Shape"></path>
                    </g>
                </g>
            </g>
        </g>
    </g>
</svg>