<?xml version="1.0" encoding="UTF-8"?>
<svg width="30px" height="36px" viewBox="0 0 30 36" version="1.1" xmlns="http://www.w3.org/2000/svg" xmlns:xlink="http://www.w3.org/1999/xlink">
    <!-- Generator: Sketch 51 (57462) - http://www.bohemiancoding.com/sketch -->
    <title>003-user</title>
    <desc>Created with Sketch.</desc>
    <defs></defs>
    <g id="Symbols" stroke="none" stroke-width="1" fill="none" fill-rule="evenodd">
        <g id="header/pink" transform="translate(-1260.000000, -32.000000)" fill="#FF8790" fill-rule="nonzero">
            <g id="header" transform="translate(30.000000, 22.000000)">
                <g id="003-user" transform="translate(1230.000000, 10.000000)">
                    <path d="M21.2717981,21.1090599 L21.1798107,21.0674953 C20.9601767,20.9675584 20.7389527,20.8732997 20.5134132,20.7850599 C20.2674322,20.6864858 20.017817,20.5952934 19.7645678,20.5098927 C19.5645804,20.4442524 19.3631167,20.3829274 19.1594953,20.3230789 C18.8493502,20.2333628 18.5361388,20.1522776 18.2136151,20.0807319 C18.1041388,20.0581325 17.9925047,20.0362145 17.8815521,20.0164543 L17.8056909,20.0018044 C17.6152429,19.9645552 17.424,19.931735 17.2305994,19.9032303 L17.1751798,19.8944858 C17.1730221,19.8944858 17.1715457,19.8930095 17.169388,19.8930095 L17.1139685,19.8857413 C16.953388,19.8616656 16.7936025,19.8390662 16.6271167,19.8201009 L16.0607697,19.7734259 C15.3645047,19.7274322 14.6470032,19.7289085 13.9588013,19.7792177 L13.7581325,19.7960252 L13.6646688,19.8032934 L13.4303849,19.8244164 C13.2150662,19.8470158 13.001224,19.8769968 12.7873817,19.9112934 L12.7245804,19.9200379 C12.5786498,19.9441136 12.4326057,19.971142 12.2888328,19.9981703 C12.1290473,20.0266751 11.971306,20.0580189 11.8136782,20.0923155 C11.5086435,20.1609085 11.205653,20.239041 10.9123155,20.3244416 C10.6787129,20.3915584 10.4481767,20.4652618 10.2313817,20.5397603 L10.0810221,20.593817 C9.62119874,20.7565552 9.16432808,20.9433691 8.72199369,21.1484669 L8.60377287,21.2046814 L8.60161514,21.2076341 C3.42908517,23.6833438 0.0935772871,28.958082 0.0935772871,34.6816278 C0.0935772871,34.8130221 0.102321767,34.9421451 0.110384858,35.0720631 L0.14911041,35.9800126 L29.9242902,35.9800126 L29.9643785,35.0822839 C29.973123,34.9494132 29.9811861,34.8173375 29.9811861,34.6816278 C29.9811861,28.866776 26.5647066,23.5453628 21.2717981,21.1090599 Z M1.5537918,34.5202524 C1.61659306,29.3813375 4.65501577,24.6671546 9.28595584,22.4957981 L9.43483912,22.4374259 L9.45232808,22.4206183 C9.81505363,22.2549274 10.1894763,22.1038864 10.5690095,21.9703344 L10.689388,21.9272934 C10.8959621,21.8557476 11.1017413,21.7901073 11.3155836,21.7294637 C11.5820063,21.6513312 11.8535394,21.5812618 12.1257539,21.5200505 C12.2665741,21.490183 12.4075079,21.4616782 12.5527571,21.4346498 C12.6680252,21.4135268 12.782612,21.3916088 12.8986751,21.3733249 L12.955571,21.3631041 C13.1643028,21.3302839 13.3738297,21.3003028 13.5825615,21.2777035 L14.0598738,21.2361388 C14.6845931,21.1901451 15.2823975,21.1835584 16.0063722,21.2361388 L16.470511,21.2748644 C16.5850978,21.2880379 16.6996845,21.3033691 16.839142,21.3230158 L17.0063091,21.3470915 C17.1807445,21.3726435 17.3551798,21.402511 17.5302965,21.4354448 L17.6120631,21.450776 C17.7106372,21.4690599 17.8084164,21.4880252 17.9010852,21.5076719 C18.1886309,21.5704732 18.4710662,21.644858 18.7513438,21.7259432 C18.9366814,21.78 19.1206562,21.8354196 19.3002019,21.8952681 C19.5278991,21.9711293 19.7527571,22.0536909 19.9753438,22.1419306 C20.1891861,22.2258549 20.4000757,22.3156845 20.6088076,22.411306 L20.6452618,22.4281136 C25.3813628,24.6009464 28.4569211,29.3304606 28.5197224,34.5190032 L1.5537918,34.5190032 L1.5537918,34.5202524 Z M11.4296025,17.8976782 C11.5390789,17.9436719 11.6521893,17.9837603 11.7652997,18.0239621 L12.0025363,18.1100442 C12.0937287,18.1450221 12.1857161,18.1794322 12.2791798,18.2086183 C13.1491987,18.4823091 14.059306,18.6231293 14.9847445,18.630511 L15.0584479,18.6319874 C15.3759748,18.6319874 15.694183,18.6151798 15.9992177,18.583836 C16.104265,18.5736151 16.2064732,18.5568076 16.3093628,18.5393186 L16.5378549,18.5050221 C16.6662965,18.4882145 16.7947382,18.4692492 16.9290852,18.4430158 C17.0210726,18.4240505 17.1101073,18.3999748 17.199142,18.3758991 L17.4487571,18.3124164 C17.5720883,18.2825489 17.6954196,18.2525678 17.817388,18.2146372 C17.8932492,18.1905615 17.9677476,18.1628517 18.0414511,18.1350284 L18.2421199,18.0628013 C18.3852114,18.0131735 18.5296656,17.9620694 18.6742334,17.9015394 C18.7304479,17.8774637 18.7851861,17.8512303 18.8391293,17.8248833 L18.9040883,17.7927445 C19.101918,17.7043912 19.2989527,17.6138801 19.494511,17.5088328 L19.6214763,17.4329716 C19.840429,17.3088454 20.0587003,17.1804038 20.2798107,17.0293628 C20.3943975,16.9520252 20.5038738,16.8651483 20.6118738,16.7790662 L20.9856151,16.4885678 C23.1343722,14.709918 24.3692744,12.0998612 24.3692744,9.39282019 L24.3737035,9.31548265 C24.3737035,4.17872555 20.1945237,0.000227129338 15.0577666,0.000227129338 C10.154612,0.000227129338 6.07536909,3.83417035 5.77101577,8.72869401 L5.76295268,8.84986751 C5.75125552,9.0038612 5.74182965,9.15785489 5.74182965,9.31548265 C5.74035331,13.0674322 7.9730347,16.4357603 11.4296025,17.8976782 Z M7.21828391,8.95105363 L7.22702839,8.81965931 C7.48391167,4.69226498 10.9229905,1.45976025 15.0569716,1.45976025 C19.3894637,1.45976025 22.9131483,4.98355836 22.9168959,9.24882019 L22.9124669,9.32547634 C22.9095142,11.6625237 21.8673312,13.8630662 20.0463218,15.374612 L19.6996088,15.638877 C19.6222713,15.7016782 19.5441388,15.7643659 19.447041,15.8315962 C19.2719243,15.950612 19.0864732,16.057817 18.898183,16.1644543 L18.793817,16.2279369 C18.6361893,16.3126562 18.4704984,16.3877224 18.2982208,16.4643785 L18.1048202,16.5578423 C17.9938675,16.603836 17.877123,16.6439243 17.7617413,16.6841262 L17.5208707,16.7710032 C17.4741956,16.7884921 17.4267256,16.8074574 17.3807319,16.8213123 C17.2910158,16.8490221 17.1990284,16.8702587 17.1077224,16.892858 L16.8165426,16.9673565 C16.7537413,16.984164 16.691735,17.001653 16.6363155,17.0133502 C16.5392177,17.0323155 16.4399621,17.045489 16.3415016,17.0593438 L16.0641767,17.1009085 C15.9970599,17.1126057 15.9298297,17.1243028 15.8546498,17.131571 C15.6116215,17.157123 15.3671167,17.1709779 15.1189779,17.1731356 L15.0503849,17.1724543 L15.0489085,17.1724543 C14.2497539,17.1717729 13.4651356,17.0527571 12.7148139,16.8177918 C12.6498549,16.7973502 12.5863722,16.7717981 12.5228896,16.7477224 L12.2485174,16.6477855 C12.1631167,16.6178044 12.078511,16.5886183 11.9967445,16.5543218 C9.08312934,15.3220315 7.2,12.4798486 7.2,9.31593691 C7.2,9.19260568 7.20953943,9.07143218 7.21828391,8.95105363 Z" id="Shape"></path>
                </g>
            </g>
        </g>
    </g>
</svg>